<svg width="24" height="24" viewBox="0 0 24 24" fill="none" xmlns="http://www.w3.org/2000/svg">
<path d="M6.4 0C2.136 3.64 0 6.784 0 9.44C0 13.424 3.04 16 6.4 16C9.76 16 12.8 13.424 12.8 9.44C12.8 6.784 10.664 3.64 6.4 0ZM6.4 14.4C3.72 14.4 1.6 12.344 1.6 9.44C1.6 7.568 3.16 5.088 6.4 2.128C9.64 5.088 11.2 7.56 11.2 9.44C11.2 12.344 9.08 14.4 6.4 14.4ZM3.064 9.6C3.36 9.6 3.6 9.808 3.656 10.096C3.984 11.872 5.48 12.48 6.568 12.392C6.912 12.376 7.2 12.648 7.2 12.992C7.2 13.312 6.944 13.576 6.624 13.592C4.92 13.696 2.928 12.72 2.472 10.296C2.408 9.936 2.696 9.6 3.064 9.6Z" fill="#0CA750"/>
</svg>
